<mxfile host="65bd71144e">
    <diagram id="kgpKYQtTHZ0yAKxKKP6v" name="Page-1">
        <mxGraphModel dx="636" dy="486" grid="1" gridSize="10" guides="1" tooltips="1" connect="1" arrows="1" fold="1" page="1" pageScale="1" pageWidth="850" pageHeight="1100" math="0" shadow="0">
            <root>
                <mxCell id="0"/>
                <mxCell id="1" parent="0"/>
                <mxCell id="Evn4lgphODj4UUY7Mann-8" value="&lt;div&gt;alt&lt;/div&gt;" style="shape=umlFrame;whiteSpace=wrap;html=1;" parent="1" vertex="1">
                    <mxGeometry x="40" y="300" width="410" height="190" as="geometry"/>
                </mxCell>
                <mxCell id="3nuBFxr9cyL0pnOWT2aG-1" value="Client web" style="shape=umlLifeline;perimeter=lifelinePerimeter;container=1;collapsible=0;recursiveResize=0;rounded=0;shadow=0;strokeWidth=1;" parent="1" vertex="1">
                    <mxGeometry x="120" y="80" width="100" height="440" as="geometry"/>
                </mxCell>
                <mxCell id="3nuBFxr9cyL0pnOWT2aG-2" value="" style="points=[];perimeter=orthogonalPerimeter;rounded=0;shadow=0;strokeWidth=1;" parent="3nuBFxr9cyL0pnOWT2aG-1" vertex="1">
                    <mxGeometry x="45" y="70" width="10" height="370" as="geometry"/>
                </mxCell>
                <mxCell id="3nuBFxr9cyL0pnOWT2aG-5" value="Serveur-api" style="shape=umlLifeline;perimeter=lifelinePerimeter;container=1;collapsible=0;recursiveResize=0;rounded=0;shadow=0;strokeWidth=1;" parent="1" vertex="1">
                    <mxGeometry x="300" y="80" width="100" height="440" as="geometry"/>
                </mxCell>
                <mxCell id="3nuBFxr9cyL0pnOWT2aG-6" value="" style="points=[];perimeter=orthogonalPerimeter;rounded=0;shadow=0;strokeWidth=1;" parent="3nuBFxr9cyL0pnOWT2aG-5" vertex="1">
                    <mxGeometry x="45" y="80" width="10" height="290" as="geometry"/>
                </mxCell>
                <mxCell id="Evn4lgphODj4UUY7Mann-5" value="Code 200&#10;Récupération des données" style="verticalAlign=bottom;endArrow=open;dashed=1;endSize=8;shadow=0;strokeWidth=1;entryX=0.975;entryY=0.375;entryDx=0;entryDy=0;entryPerimeter=0;exitX=-0.079;exitY=0.773;exitDx=0;exitDy=0;exitPerimeter=0;" parent="3nuBFxr9cyL0pnOWT2aG-5" source="3nuBFxr9cyL0pnOWT2aG-6" edge="1">
                    <mxGeometry relative="1" as="geometry">
                        <mxPoint x="-125" y="304" as="targetPoint"/>
                        <mxPoint x="49.50000000000023" y="304" as="sourcePoint"/>
                    </mxGeometry>
                </mxCell>
                <mxCell id="Evn4lgphODj4UUY7Mann-12" value="&lt;div&gt;Traitement &lt;br&gt;&lt;/div&gt;&lt;div&gt;des données&lt;/div&gt;" style="endArrow=classic;html=1;rounded=0;" parent="3nuBFxr9cyL0pnOWT2aG-5" edge="1">
                    <mxGeometry width="50" height="50" relative="1" as="geometry">
                        <mxPoint x="55" y="236" as="sourcePoint"/>
                        <mxPoint x="55" y="273" as="targetPoint"/>
                        <Array as="points">
                            <mxPoint x="100" y="236"/>
                            <mxPoint x="100" y="273"/>
                        </Array>
                    </mxGeometry>
                </mxCell>
                <mxCell id="3nuBFxr9cyL0pnOWT2aG-8" value="Requêtes HTTP" style="verticalAlign=bottom;endArrow=block;entryX=0;entryY=0;shadow=0;strokeWidth=1;" parent="1" source="3nuBFxr9cyL0pnOWT2aG-2" target="3nuBFxr9cyL0pnOWT2aG-6" edge="1">
                    <mxGeometry relative="1" as="geometry">
                        <mxPoint x="275" y="160" as="sourcePoint"/>
                    </mxGeometry>
                </mxCell>
                <mxCell id="Evn4lgphODj4UUY7Mann-1" value="Base de données" style="shape=umlLifeline;perimeter=lifelinePerimeter;container=1;collapsible=0;recursiveResize=0;rounded=0;shadow=0;strokeWidth=1;" parent="1" vertex="1">
                    <mxGeometry x="470" y="80" width="100" height="440" as="geometry"/>
                </mxCell>
                <mxCell id="Evn4lgphODj4UUY7Mann-2" value="" style="points=[];perimeter=orthogonalPerimeter;rounded=0;shadow=0;strokeWidth=1;" parent="Evn4lgphODj4UUY7Mann-1" vertex="1">
                    <mxGeometry x="45" y="110" width="10" height="30" as="geometry"/>
                </mxCell>
                <mxCell id="Evn4lgphODj4UUY7Mann-4" value="Récupération des données" style="verticalAlign=bottom;endArrow=open;dashed=1;endSize=8;exitX=0;exitY=0.95;shadow=0;strokeWidth=1;" parent="Evn4lgphODj4UUY7Mann-1" target="3nuBFxr9cyL0pnOWT2aG-6" edge="1">
                    <mxGeometry relative="1" as="geometry">
                        <mxPoint x="-120" y="140" as="targetPoint"/>
                        <mxPoint x="45" y="139.99999999999977" as="sourcePoint"/>
                    </mxGeometry>
                </mxCell>
                <mxCell id="Evn4lgphODj4UUY7Mann-3" value="Requêtes SQL" style="verticalAlign=bottom;endArrow=block;shadow=0;strokeWidth=1;entryX=0.014;entryY=-0.009;entryDx=0;entryDy=0;entryPerimeter=0;" parent="1" source="3nuBFxr9cyL0pnOWT2aG-5" target="Evn4lgphODj4UUY7Mann-2" edge="1">
                    <mxGeometry relative="1" as="geometry">
                        <mxPoint x="360" y="190.0000000000001" as="sourcePoint"/>
                        <mxPoint x="510" y="191" as="targetPoint"/>
                    </mxGeometry>
                </mxCell>
                <mxCell id="Evn4lgphODj4UUY7Mann-9" value="" style="endArrow=none;dashed=1;html=1;rounded=0;exitX=-0.005;exitY=0.561;exitDx=0;exitDy=0;exitPerimeter=0;entryX=1.003;entryY=0.545;entryDx=0;entryDy=0;entryPerimeter=0;" parent="1" edge="1">
                    <mxGeometry width="50" height="50" relative="1" as="geometry">
                        <mxPoint x="37.94999999999993" y="413.2500000000001" as="sourcePoint"/>
                        <mxPoint x="451.2299999999998" y="412.25" as="targetPoint"/>
                    </mxGeometry>
                </mxCell>
                <mxCell id="Evn4lgphODj4UUY7Mann-10" value="[Données existentes]" style="text;html=1;strokeColor=none;fillColor=none;align=center;verticalAlign=middle;whiteSpace=wrap;rounded=0;" parent="1" vertex="1">
                    <mxGeometry x="50" y="341" width="60" height="30" as="geometry"/>
                </mxCell>
                <mxCell id="Evn4lgphODj4UUY7Mann-11" value="[Données inexistentes]" style="text;html=1;strokeColor=none;fillColor=none;align=center;verticalAlign=middle;whiteSpace=wrap;rounded=0;" parent="1" vertex="1">
                    <mxGeometry x="50" y="425" width="60" height="30" as="geometry"/>
                </mxCell>
                <mxCell id="Evn4lgphODj4UUY7Mann-13" value="Code 400&#10;Erreur donneés inexistentes" style="verticalAlign=bottom;endArrow=open;dashed=1;endSize=8;shadow=0;strokeWidth=1;entryX=1.013;entryY=0.808;entryDx=0;entryDy=0;entryPerimeter=0;" parent="1" target="3nuBFxr9cyL0pnOWT2aG-2" edge="1">
                    <mxGeometry relative="1" as="geometry">
                        <mxPoint x="180" y="450" as="targetPoint"/>
                        <mxPoint x="344.5000000000002" y="450" as="sourcePoint"/>
                    </mxGeometry>
                </mxCell>
            </root>
        </mxGraphModel>
    </diagram>
</mxfile>